<?xml version="1.0" encoding="utf-8"?>
<!-- Generator: Adobe Illustrator 19.0.0, SVG Export Plug-In . SVG Version: 6.00 Build 0)  -->
<svg version="1.1" id="post" xmlns="http://www.w3.org/2000/svg" xmlns:xlink="http://www.w3.org/1999/xlink" x="0px" y="0px"
	 viewBox="0 0 110.7 78" style="enable-background:new 0 0 110.7 78;" xml:space="preserve">
<style type="text/css">
	.st0{fill:#FFFFFF;}
	.st1{fill:#0D0F0F;}
	.st2{opacity:1;}
</style>
<g id="White_Base_90_">
	<g id="XMLID_53_">
		<path id="XMLID_54_" class="st0" d="M101.7,11.2L73.6,39.3l28.1,28.1c0-0.1,0-0.1,0-0.2L101.7,11.2
			C101.7,11.3,101.7,11.2,101.7,11.2z M54.7,49.3c2.2,0,4.2-0.9,5.7-2.3L99.6,7.7c-0.2-0.1-0.4-0.2-0.6-0.3c-0.1,0-0.2-0.1-0.3-0.1
			c-0.1,0-0.2,0-0.3-0.1c-0.2,0-0.4-0.1-0.7-0.1h-86c-0.2,0-0.4,0-0.7,0.1c-0.1,0-0.2,0-0.3,0.1c-0.1,0-0.2,0.1-0.3,0.1
			c-0.2,0.1-0.4,0.2-0.6,0.3l39.2,39.2C50.5,48.4,52.5,49.3,54.7,49.3z M7.7,11.2C7.7,11.2,7.7,11.3,7.7,11.2l0,56
			c0,0.1,0,0.1,0,0.2l28.1-28.1L7.7,11.2z M63.2,49.7c-2.2,2.2-5.2,3.5-8.5,3.5c-3.3,0-6.3-1.3-8.5-3.5l-7.6-7.6L10,70.8
			c0.3,0.1,0.5,0.2,0.8,0.3c0,0,0,0,0.1,0c0.3,0.1,0.6,0.1,0.9,0.1h86c0.3,0,0.6,0,0.9-0.1c0,0,0,0,0.1,0c0.3-0.1,0.5-0.2,0.8-0.3
			L70.8,42.2L63.2,49.7z"/>
	</g>
</g>
<g id="red">
	<g id="XMLID_37_">
		<path id="XMLID_38_" class="st1" d="M31.7,19.3h16v-2h-16V19.3z M31.7,13.3v2h22v-2H31.7z"/>
	</g>
</g>
<g id="texture">
	<g id="XMLID_628_">
		<path id="XMLID_629_" class="st1" d="M13.7,66.3v-2h-2v2H13.7z M7.7,66.3h2v-2h-2V66.3z M9.7,64.3h2v-2h-2V64.3z M13.7,62.3v-2h-2
			v2H13.7z M7.7,60.3v2h2v-2H7.7z M9.7,60.3h2v-2h-2V60.3z M13.7,58.3v-2h-2v2H13.7z M7.7,56.3v2h2v-2H7.7z M9.7,56.3h2v-2h-2V56.3z
			 M13.7,54.3v-2h-2v2H13.7z M7.7,52.3v2h2v-2H7.7z M9.7,52.3h2v-2h-2V52.3z M13.7,50.3v-2h-2v2H13.7z M7.7,48.3v2h2v-2H7.7z
			 M9.7,48.3h2v-2h-2V48.3z M13.7,46.3v-2h-2v2H13.7z M7.7,44.3v2h2v-2H7.7z M9.7,44.3h2v-2h-2V44.3z M13.7,42.3v-2h-2v2H13.7z
			 M7.7,40.3v2h2v-2H7.7z M9.7,40.3h2v-2h-2V40.3z M13.7,38.3v-2h-2v2H13.7z M7.7,36.3v2h2v-2H7.7z M9.7,36.3h2v-2h-2V36.3z
			 M13.7,34.3v-2h-2v2H13.7z M7.7,32.3v2h2v-2H7.7z M9.7,32.3h2v-2h-2V32.3z M13.7,30.3v-2h-2v2H13.7z M7.7,28.3v2h2v-2H7.7z
			 M9.7,28.3h2v-2h-2V28.3z M13.7,26.3v-2h-2v2H13.7z M7.7,24.3v2h2v-2H7.7z M9.7,24.3h2v-2h-2V24.3z M13.7,22.3v-2h-2v2H13.7z
			 M7.7,20.3v2h2v-2H7.7z M9.7,20.3h2v-2h-2V20.3z M13.7,18.3v-2h-2v2H13.7z M7.7,16.3v2h2v-2H7.7z M9.7,16.3h2v-2h-2V16.3z
			 M11.7,14.3h2v-2h-2V14.3z M7.7,12.3v2h2v-2H7.7z M101.7,66.3v-2h-2v2H101.7z M95.7,66.3h2v-2h-2V66.3z M97.7,64.3h2v-2h-2V64.3z
			 M101.7,62.3v-2h-2v2H101.7z M95.7,60.3v2h2v-2H95.7z M97.7,60.3h2v-2h-2V60.3z M101.7,58.3v-2h-2v2H101.7z M95.7,56.3v2h2v-2
			H95.7z M97.7,56.3h2v-2h-2V56.3z M101.7,54.3v-2h-2v2H101.7z M95.7,52.3v2h2v-2H95.7z M97.7,52.3h2v-2h-2V52.3z M101.7,50.3v-2h-2
			v2H101.7z M95.7,48.3v2h2v-2H95.7z M97.7,48.3h2v-2h-2V48.3z M101.7,46.3v-2h-2v2H101.7z M95.7,44.3v2h2v-2H95.7z M97.7,44.3h2v-2
			h-2V44.3z M101.7,42.3v-2h-2v2H101.7z M95.7,40.3v2h2v-2H95.7z M97.7,40.3h2v-2h-2V40.3z M101.7,38.3v-2h-2v2H101.7z M95.7,36.3v2
			h2v-2H95.7z M97.7,36.3h2v-2h-2V36.3z M101.7,34.3v-2h-2v2H101.7z M95.7,32.3v2h2v-2H95.7z M97.7,32.3h2v-2h-2V32.3z M101.7,30.3
			v-2h-2v2H101.7z M95.7,28.3v2h2v-2H95.7z M97.7,28.3h2v-2h-2V28.3z M101.7,26.3v-2h-2v2H101.7z M95.7,24.3v2h2v-2H95.7z
			 M97.7,24.3h2v-2h-2V24.3z M101.7,22.3v-2h-2v2H101.7z M95.7,20.3v2h2v-2H95.7z M97.7,20.3h2v-2h-2V20.3z M101.7,18.3v-2h-2v2
			H101.7z M95.7,16.3v2h2v-2H95.7z M97.7,14.3v2h2v-2H97.7z M101.7,12.3h-2v2h2V12.3z M95.7,12.3v2h2v-2H95.7z"/>
	</g>
</g>
<g id="outline" class="st2">
	<path id="XMLID_2_" class="st1" d="M97.7,3.3h-86c-4.4,0-8,3.6-8,8v56c0,4.4,3.6,8,8,8h86c4.4,0,8-3.6,8-8v-56
		C105.7,6.8,102.2,3.3,97.7,3.3z M11.7,7.3h86c0.7,0,1.3,0.2,1.8,0.5L60.4,46.9c-1.4,1.4-3.4,2.3-5.7,2.3s-4.2-0.9-5.7-2.3L9.9,7.7
		C10.4,7.4,11.1,7.3,11.7,7.3z M7.7,11.3C7.7,11.3,7.7,11.2,7.7,11.3l28.1,28.1L7.8,67.4c0-0.1,0-0.1,0-0.2V11.3z M97.7,71.3h-86
		c-0.6,0-1.2-0.2-1.8-0.4l28.7-28.7l7.6,7.6c2.2,2.2,5.2,3.5,8.5,3.5s6.3-1.3,8.5-3.5l7.6-7.6l28.7,28.7
		C99,71.1,98.4,71.3,97.7,71.3z M101.7,67.3c0,0.1,0,0.1,0,0.2L73.6,39.3l28.1-28.1c0,0,0,0,0,0V67.3z"/>
</g>
</svg>
